M48
;Layer_Color=9474304
;FILE_FORMAT=2:4
INCH,TZ
;TYPE=PLATED
T1F00S00C0.0157
T2F00S00C0.0197
T3F00S00C0.0236
T4F00S00C0.0315
;TYPE=NON_PLATED
T5F00S00C0.0315
T6F00S00C0.0354
T7F00S00C0.0591
%
T01
X4882Y2362
X5315Y2244
X5787
X8071
X8459Y2047
X8819Y1850
X14409Y906
X16220Y827
X16732Y1575
X16693Y2008
X16499Y2371
X16024Y3307
X14567Y2953
X17126Y1181
X13504Y8307
X12913
X12323
X7047Y7717
T02
X10827Y512
X11516Y1161
X12953Y315
X11417Y3937
X13937Y5236
X13740Y5984
X11339Y8307
X7799Y7713
X17205Y9528
Y9882
Y10236
Y10591
Y10945
Y11457
Y11811
Y12165
Y12520
Y12874
Y13228
X16535Y10394
T03
X394Y394
X1969
X3543
X5118
X2756Y2756
X394Y3543
Y1969
Y5118
X9921Y5157
X9843Y394
X8268
X6693
X7283Y1378
X14961Y5512
X16732Y5906
X16929Y7087
X17126Y8071
X15945Y8268
X14217Y10551
X13717
X13217
X12717
X11854
X11354
X10854
X10354
X9646Y12008
X9843Y13386
X14961
X16142
X7677Y10039
X8268Y8071
X5118Y7677
X4528Y9843
X1969Y11024
X394Y10236
Y8661
Y7087
X1969Y7480
X394Y11811
Y13386
X5118
T04
X1299Y3528
X2299
X3299
X4299
X3799Y4528
X2799
X1799
X4799
X6545Y7923
X6701Y12244
X7701
X8701
X8201Y13244
X7201
X6201
X3892
X2892
X3392Y12244
X2392
X2799Y6693
X1799
X1299Y5693
X2299
X3299
X4299
X3799Y6693
X4799
T05
X5299Y3528
X6299
X7299
X8299
X9299
X10299
X9799Y4528
X8799
X7799
X6799
X5799
X10799
X10299Y5693
X9299
X8299
X7299
X6299
X5799Y6693
X6799
X7799
X8799
X9799
X10799
X5299Y5693
T06
X11669Y9346
Y11346
Y13346
X10669
X13150
X14150
Y11346
Y9346
T07
X748Y4236
X9252Y12953
X1841
X748Y6402
M30
