G04 Layer_Color=16711935*
%FSLAX24Y24*%
%MOIN*%
G70*
G01*
G75*
%ADD23C,0.0591*%
%ADD26C,0.0472*%
G04:AMPARAMS|DCode=30|XSize=47.2mil|YSize=43.3mil|CornerRadius=8.4mil|HoleSize=0mil|Usage=FLASHONLY|Rotation=180.000|XOffset=0mil|YOffset=0mil|HoleType=Round|Shape=RoundedRectangle|*
%AMROUNDEDRECTD30*
21,1,0.0472,0.0266,0,0,180.0*
21,1,0.0305,0.0433,0,0,180.0*
1,1,0.0167,-0.0153,0.0133*
1,1,0.0167,0.0153,0.0133*
1,1,0.0167,0.0153,-0.0133*
1,1,0.0167,-0.0153,-0.0133*
%
%ADD30ROUNDEDRECTD30*%
G04:AMPARAMS|DCode=33|XSize=47.2mil|YSize=43.3mil|CornerRadius=8.4mil|HoleSize=0mil|Usage=FLASHONLY|Rotation=270.000|XOffset=0mil|YOffset=0mil|HoleType=Round|Shape=RoundedRectangle|*
%AMROUNDEDRECTD33*
21,1,0.0472,0.0266,0,0,270.0*
21,1,0.0305,0.0433,0,0,270.0*
1,1,0.0167,-0.0133,-0.0153*
1,1,0.0167,-0.0133,0.0153*
1,1,0.0167,0.0133,0.0153*
1,1,0.0167,0.0133,-0.0153*
%
%ADD33ROUNDEDRECTD33*%
%ADD34O,0.0689X0.0315*%
%ADD35R,0.0689X0.0315*%
%ADD36R,0.1732X0.0354*%
%ADD37C,0.0079*%
%ADD38C,0.0669*%
G36*
X19685Y177D02*
X17441D01*
Y8484D01*
X19685D01*
Y177D01*
D02*
G37*
G36*
Y9232D02*
X17441D01*
Y13602D01*
X19685D01*
Y9232D01*
D02*
G37*
D23*
X1299Y3528D02*
D03*
X3299D02*
D03*
X2299D02*
D03*
X1799Y4528D02*
D03*
X2799D02*
D03*
X3799D02*
D03*
X4299Y3528D02*
D03*
X4799Y4528D02*
D03*
X7299Y3528D02*
D03*
X5299D02*
D03*
X6299D02*
D03*
X8299D02*
D03*
X9299D02*
D03*
X7799Y4528D02*
D03*
X8799D02*
D03*
X5799D02*
D03*
X6799D02*
D03*
X9799D02*
D03*
X10299Y3528D02*
D03*
X10799Y4528D02*
D03*
X1299Y5693D02*
D03*
X3299D02*
D03*
X2299D02*
D03*
X1799Y6693D02*
D03*
X2799D02*
D03*
X3799D02*
D03*
X4299Y5693D02*
D03*
X4799Y6693D02*
D03*
X7299Y5693D02*
D03*
X5299D02*
D03*
X6299D02*
D03*
X8299D02*
D03*
X9299D02*
D03*
X7799Y6693D02*
D03*
X8799D02*
D03*
X5799D02*
D03*
X6799D02*
D03*
X9799D02*
D03*
X10299Y5693D02*
D03*
X10799Y6693D02*
D03*
X3392Y12244D02*
D03*
X2392D02*
D03*
X2892Y13244D02*
D03*
X3892D02*
D03*
X6201D02*
D03*
X6701Y12244D02*
D03*
X8701D02*
D03*
X7701D02*
D03*
X8201Y13244D02*
D03*
X7201D02*
D03*
D26*
X10854Y10551D02*
D03*
X10354D02*
D03*
X11854D02*
D03*
X11354D02*
D03*
X13217D02*
D03*
X12717D02*
D03*
X14217D02*
D03*
X13717D02*
D03*
D30*
X15906Y846D02*
D03*
Y1516D02*
D03*
Y2067D02*
D03*
Y2736D02*
D03*
D33*
X10364Y9016D02*
D03*
X11033D02*
D03*
X7539Y10669D02*
D03*
X8209D02*
D03*
X6240D02*
D03*
X6909D02*
D03*
X8760Y11260D02*
D03*
X9429D02*
D03*
X5020D02*
D03*
X5689D02*
D03*
X7539D02*
D03*
X8209D02*
D03*
X6240D02*
D03*
X6909D02*
D03*
X11437Y551D02*
D03*
X12106D02*
D03*
X14429Y433D02*
D03*
X15098D02*
D03*
X12815Y9016D02*
D03*
X13484D02*
D03*
X10374Y9606D02*
D03*
X11043D02*
D03*
X12815D02*
D03*
X13484D02*
D03*
D34*
X12953Y1563D02*
D03*
Y2063D02*
D03*
Y2563D02*
D03*
X15079Y2063D02*
D03*
Y2563D02*
D03*
Y1063D02*
D03*
Y1563D02*
D03*
D35*
X12953Y1063D02*
D03*
D36*
X18307Y394D02*
D03*
Y787D02*
D03*
Y1181D02*
D03*
Y1575D02*
D03*
Y1969D02*
D03*
Y2362D02*
D03*
Y2756D02*
D03*
Y3150D02*
D03*
Y3543D02*
D03*
Y3937D02*
D03*
Y4331D02*
D03*
Y4724D02*
D03*
Y5118D02*
D03*
Y5512D02*
D03*
Y5906D02*
D03*
Y6299D02*
D03*
Y6693D02*
D03*
Y7087D02*
D03*
Y7480D02*
D03*
Y7874D02*
D03*
Y8268D02*
D03*
Y9449D02*
D03*
Y9843D02*
D03*
Y10236D02*
D03*
Y10630D02*
D03*
Y11024D02*
D03*
Y11417D02*
D03*
Y11811D02*
D03*
Y12205D02*
D03*
Y12598D02*
D03*
Y12992D02*
D03*
Y13386D02*
D03*
D37*
X748Y4236D02*
D03*
Y6402D02*
D03*
X1841Y12953D02*
D03*
X9252D02*
D03*
D38*
X10669Y13346D02*
D03*
X11669Y9346D02*
D03*
Y13346D02*
D03*
Y11346D02*
D03*
X13150Y13346D02*
D03*
X14150Y9346D02*
D03*
Y13346D02*
D03*
Y11346D02*
D03*
M02*
