G04 Layer_Physical_Order=2*
G04 Layer_Color=16711680*
%FSLAX24Y24*%
%MOIN*%
G70*
G01*
G75*
G04:AMPARAMS|DCode=10|XSize=39.4mil|YSize=35.4mil|CornerRadius=4.4mil|HoleSize=0mil|Usage=FLASHONLY|Rotation=180.000|XOffset=0mil|YOffset=0mil|HoleType=Round|Shape=RoundedRectangle|*
%AMROUNDEDRECTD10*
21,1,0.0394,0.0266,0,0,180.0*
21,1,0.0305,0.0354,0,0,180.0*
1,1,0.0089,-0.0153,0.0133*
1,1,0.0089,0.0153,0.0133*
1,1,0.0089,0.0153,-0.0133*
1,1,0.0089,-0.0153,-0.0133*
%
%ADD10ROUNDEDRECTD10*%
G04:AMPARAMS|DCode=13|XSize=39.4mil|YSize=35.4mil|CornerRadius=4.4mil|HoleSize=0mil|Usage=FLASHONLY|Rotation=270.000|XOffset=0mil|YOffset=0mil|HoleType=Round|Shape=RoundedRectangle|*
%AMROUNDEDRECTD13*
21,1,0.0394,0.0266,0,0,270.0*
21,1,0.0305,0.0354,0,0,270.0*
1,1,0.0089,-0.0133,-0.0153*
1,1,0.0089,-0.0133,0.0153*
1,1,0.0089,0.0133,0.0153*
1,1,0.0089,0.0133,-0.0153*
%
%ADD13ROUNDEDRECTD13*%
%ADD14O,0.0610X0.0236*%
%ADD15R,0.0610X0.0236*%
%ADD16R,0.1654X0.0276*%
%ADD17C,0.0118*%
%ADD18C,0.0157*%
%ADD19C,0.0197*%
%ADD20C,0.0315*%
%ADD21C,0.0394*%
%ADD22C,0.0512*%
%ADD23C,0.0591*%
%ADD24C,0.0315*%
%ADD25C,0.0354*%
%ADD26C,0.0472*%
G36*
X19134Y9313D02*
X16929D01*
Y11181D01*
X19134D01*
Y9313D01*
D02*
G37*
G36*
X16102Y10704D02*
X16849D01*
Y9629D01*
X16299D01*
X16230Y9616D01*
X16171Y9577D01*
X15217Y8622D01*
X15178Y8563D01*
X15164Y8494D01*
Y6719D01*
X13939Y5494D01*
X13937Y5494D01*
X13870Y5486D01*
X13808Y5460D01*
X13754Y5419D01*
X13713Y5365D01*
X13688Y5303D01*
X13684Y5276D01*
X13268D01*
Y4944D01*
X12936D01*
X12882Y4933D01*
X12837Y4902D01*
X11208Y3274D01*
X10676D01*
X10649Y3302D01*
X10605Y3392D01*
X10625Y3440D01*
X10637Y3528D01*
X10625Y3615D01*
X10592Y3696D01*
X10538Y3766D01*
X10468Y3820D01*
X10387Y3854D01*
X10299Y3865D01*
X10212Y3854D01*
X10130Y3820D01*
X10061Y3766D01*
X10007Y3696D01*
X9973Y3615D01*
X9962Y3528D01*
X9973Y3440D01*
X9993Y3392D01*
X9950Y3302D01*
X9923Y3274D01*
X9676D01*
X9649Y3302D01*
X9605Y3392D01*
X9625Y3440D01*
X9637Y3528D01*
X9625Y3615D01*
X9592Y3696D01*
X9538Y3766D01*
X9468Y3820D01*
X9387Y3854D01*
X9299Y3865D01*
X9212Y3854D01*
X9130Y3820D01*
X9061Y3766D01*
X9007Y3696D01*
X8973Y3615D01*
X8962Y3528D01*
X8973Y3440D01*
X8993Y3392D01*
X8950Y3302D01*
X8923Y3274D01*
X8676D01*
X8649Y3302D01*
X8605Y3392D01*
X8625Y3440D01*
X8637Y3528D01*
X8625Y3615D01*
X8592Y3696D01*
X8538Y3766D01*
X8468Y3820D01*
X8460Y3823D01*
Y4226D01*
X8512Y4259D01*
X8578Y4276D01*
X8630Y4235D01*
X8712Y4202D01*
X8799Y4190D01*
X8887Y4202D01*
X8968Y4235D01*
X9038Y4289D01*
X9092Y4359D01*
X9125Y4440D01*
X9137Y4528D01*
X9125Y4615D01*
X9106Y4662D01*
X9151Y4757D01*
X9173Y4780D01*
X9173Y4780D01*
X9235Y4793D01*
X9287Y4827D01*
X9913Y5454D01*
X10061Y5454D01*
X10064Y5452D01*
X10130Y5401D01*
X10212Y5367D01*
X10299Y5355D01*
X10387Y5367D01*
X10468Y5401D01*
X10538Y5454D01*
X10592Y5524D01*
X10625Y5606D01*
X10637Y5693D01*
X10625Y5780D01*
X10592Y5862D01*
X10538Y5932D01*
X10468Y5985D01*
X10387Y6019D01*
X10346Y6024D01*
X10298Y6141D01*
X10298Y6144D01*
X10499Y6345D01*
X10499Y6345D01*
X10503Y6350D01*
X10613Y6394D01*
X10642Y6393D01*
X10653Y6391D01*
X10712Y6367D01*
X10799Y6355D01*
X10887Y6367D01*
X10968Y6401D01*
X11038Y6454D01*
X11092Y6524D01*
X11125Y6606D01*
X11137Y6693D01*
X11125Y6780D01*
X11092Y6862D01*
X11038Y6932D01*
X11019Y6946D01*
X11060Y7064D01*
X12421D01*
X12421Y7064D01*
X12483Y7076D01*
X12535Y7111D01*
X13492Y8069D01*
X13504Y8066D01*
X13596Y8085D01*
X13674Y8137D01*
X13726Y8215D01*
X13745Y8307D01*
X13726Y8399D01*
X13674Y8477D01*
X13596Y8530D01*
X13504Y8548D01*
X13412Y8530D01*
X13337Y8622D01*
X13453Y8738D01*
X13617D01*
X13665Y8747D01*
X13706Y8774D01*
X13733Y8815D01*
X13819Y8855D01*
X13880Y8867D01*
X13932Y8902D01*
X14024Y8994D01*
X14052Y8982D01*
X14150Y8969D01*
X14247Y8982D01*
X14338Y9020D01*
X14416Y9080D01*
X14476Y9158D01*
X14514Y9249D01*
X14527Y9346D01*
X14514Y9444D01*
X14476Y9535D01*
X14416Y9613D01*
X14338Y9673D01*
X14317Y9682D01*
X14340Y9800D01*
X15118D01*
X15118Y9800D01*
X15180Y9812D01*
X15232Y9847D01*
X16091Y10706D01*
X16102Y10704D01*
D02*
G37*
G36*
X15759Y10947D02*
Y10829D01*
X15052Y10121D01*
X12287D01*
X12287Y10121D01*
X12271Y10118D01*
X11275D01*
X11260Y10121D01*
X11260Y10121D01*
X10728D01*
X10728Y10121D01*
X10667Y10109D01*
X10615Y10074D01*
X10615Y10074D01*
X10425Y9884D01*
X10241D01*
X10193Y9875D01*
X10152Y9848D01*
X10125Y9807D01*
X10116Y9759D01*
Y9454D01*
X10125Y9406D01*
X10139Y9386D01*
X10152Y9356D01*
X10143Y9258D01*
X10135Y9246D01*
X10115Y9216D01*
X10106Y9168D01*
Y9075D01*
X10364D01*
Y9016D01*
X10423D01*
Y8738D01*
X10497D01*
X10536Y8745D01*
X10541Y8740D01*
X10856D01*
X10873Y8629D01*
Y8620D01*
X10603Y8350D01*
X9043D01*
X8981Y8337D01*
X8929Y8303D01*
X8929Y8303D01*
X8215Y7588D01*
X8156Y7596D01*
X8143Y7602D01*
X8057Y7713D01*
X8049Y7779D01*
X8023Y7842D01*
X7982Y7895D01*
X7928Y7936D01*
X7866Y7962D01*
X7799Y7971D01*
X7732Y7962D01*
X7670Y7936D01*
X7617Y7895D01*
X7603Y7877D01*
X7224D01*
X7218Y7887D01*
X7139Y7939D01*
X7080Y7951D01*
X7037Y8044D01*
X7034Y8071D01*
X9826Y10863D01*
X10730Y11767D01*
X14940D01*
X15759Y10947D01*
D02*
G37*
G36*
X16356Y9087D02*
X16311Y8976D01*
X16295Y8858D01*
X16311Y8740D01*
X16356Y8630D01*
X16429Y8535D01*
X16524Y8463D01*
X16634Y8417D01*
X16752Y8402D01*
Y8404D01*
X19134D01*
Y6122D01*
X17402D01*
Y5986D01*
X16691Y5276D01*
X14386D01*
X14341Y5385D01*
X15472Y6516D01*
X15511Y6575D01*
X15525Y6644D01*
Y8419D01*
X16262Y9156D01*
X16356Y9087D01*
D02*
G37*
G36*
X5791Y13590D02*
X5708Y13507D01*
X5677Y13461D01*
X5667Y13407D01*
Y12125D01*
X5079Y11538D01*
X4887D01*
X4839Y11528D01*
X4798Y11501D01*
X4771Y11460D01*
X4761Y11412D01*
Y11107D01*
X4771Y11059D01*
X4798Y11019D01*
X4839Y10991D01*
X4887Y10982D01*
X5153D01*
X5192Y10990D01*
X5197Y10984D01*
X5512D01*
X5517Y10990D01*
X5556Y10982D01*
X5822D01*
X5870Y10991D01*
X5895Y11008D01*
X5900Y11011D01*
X5933Y11001D01*
X6001Y10933D01*
X6011Y10900D01*
X6008Y10895D01*
X5991Y10870D01*
X5982Y10822D01*
Y10728D01*
X6240D01*
Y10669D01*
X6299D01*
Y10391D01*
X6373D01*
X6412Y10399D01*
X6417Y10394D01*
X6732D01*
X6738Y10399D01*
X6777Y10391D01*
X7042D01*
X7090Y10401D01*
X7131Y10428D01*
X7158Y10469D01*
X7168Y10517D01*
X7281D01*
X7291Y10469D01*
X7318Y10428D01*
X7358Y10401D01*
X7406Y10391D01*
X7672D01*
X7711Y10399D01*
X7717Y10394D01*
X8031D01*
X8037Y10399D01*
X8076Y10391D01*
X8150D01*
Y10669D01*
X8209D01*
Y10728D01*
X8467D01*
Y10822D01*
X8457Y10870D01*
X8441Y10895D01*
X8438Y10900D01*
X8448Y10933D01*
X8516Y11001D01*
X8548Y11011D01*
X8554Y11008D01*
X8579Y10991D01*
X8627Y10982D01*
X8893D01*
X8932Y10990D01*
X8937Y10984D01*
X9099D01*
X9148Y10866D01*
X6519Y8237D01*
X6463Y8230D01*
X6386Y8198D01*
X6321Y8148D01*
X6270Y8082D01*
X6238Y8005D01*
X6228Y7923D01*
X6238Y7841D01*
X6270Y7764D01*
X6321Y7699D01*
X6386Y7648D01*
X6463Y7616D01*
X6545Y7606D01*
X6628Y7616D01*
X6700Y7646D01*
X6705Y7648D01*
X6710Y7647D01*
X6755Y7588D01*
X6770Y7476D01*
X6770Y7476D01*
X6201Y6906D01*
X6183Y6899D01*
X6144Y6897D01*
X6055Y6909D01*
X6038Y6932D01*
X5968Y6985D01*
X5887Y7019D01*
X5799Y7030D01*
X5712Y7019D01*
X5630Y6985D01*
X5561Y6932D01*
X5507Y6862D01*
X5473Y6780D01*
X5462Y6693D01*
X5473Y6606D01*
X5507Y6524D01*
X5561Y6454D01*
X5630Y6401D01*
X5712Y6367D01*
X5799Y6355D01*
X5887Y6367D01*
X5968Y6401D01*
X6021Y6441D01*
X6087Y6424D01*
X6139Y6392D01*
Y5989D01*
X6130Y5985D01*
X6061Y5932D01*
X6007Y5862D01*
X5973Y5780D01*
X5962Y5693D01*
X5973Y5606D01*
X6007Y5524D01*
X6061Y5454D01*
X6130Y5401D01*
X6212Y5367D01*
X6299Y5355D01*
X6387Y5367D01*
X6468Y5401D01*
X6538Y5454D01*
X6592Y5524D01*
X6625Y5606D01*
X6637Y5693D01*
X6625Y5780D01*
X6592Y5862D01*
X6538Y5932D01*
X6468Y5985D01*
X6460Y5989D01*
Y6392D01*
X6512Y6424D01*
X6578Y6441D01*
X6630Y6401D01*
X6712Y6367D01*
X6799Y6355D01*
X6887Y6367D01*
X6968Y6401D01*
X7038Y6454D01*
X7092Y6524D01*
X7125Y6606D01*
X7137Y6693D01*
X7125Y6780D01*
X7122Y6788D01*
X7299Y6965D01*
X7438D01*
X7481Y6901D01*
X7501Y6847D01*
X7473Y6780D01*
X7462Y6693D01*
X7473Y6606D01*
X7507Y6524D01*
X7561Y6454D01*
X7630Y6401D01*
X7712Y6367D01*
X7799Y6355D01*
X7887Y6367D01*
X7896Y6371D01*
X7963Y6271D01*
X7772Y6080D01*
X7737Y6028D01*
X7725Y5967D01*
X7725Y5967D01*
Y5847D01*
X7607Y5824D01*
X7592Y5862D01*
X7538Y5932D01*
X7468Y5985D01*
X7387Y6019D01*
X7299Y6030D01*
X7212Y6019D01*
X7130Y5985D01*
X7061Y5932D01*
X7007Y5862D01*
X6973Y5780D01*
X6962Y5693D01*
X6973Y5606D01*
X7007Y5524D01*
X7061Y5454D01*
X7130Y5401D01*
X7212Y5367D01*
X7268Y5359D01*
X7309Y5282D01*
X7314Y5238D01*
X7178Y5102D01*
X6628D01*
X6628Y5102D01*
X6567Y5089D01*
X6514Y5054D01*
X6201Y4741D01*
X6183Y4734D01*
X6144Y4731D01*
X6055Y4743D01*
X6038Y4766D01*
X5968Y4820D01*
X5887Y4854D01*
X5799Y4865D01*
X5712Y4854D01*
X5630Y4820D01*
X5561Y4766D01*
X5507Y4696D01*
X5473Y4615D01*
X5462Y4528D01*
X5473Y4440D01*
X5507Y4359D01*
X5561Y4289D01*
X5630Y4235D01*
X5712Y4202D01*
X5799Y4190D01*
X5887Y4202D01*
X5968Y4235D01*
X6021Y4276D01*
X6087Y4259D01*
X6139Y4226D01*
Y3823D01*
X6130Y3820D01*
X6061Y3766D01*
X6007Y3696D01*
X5973Y3615D01*
X5962Y3528D01*
X5973Y3440D01*
X5993Y3392D01*
X5950Y3302D01*
X5923Y3274D01*
X5676D01*
X5649Y3302D01*
X5605Y3392D01*
X5625Y3440D01*
X5637Y3528D01*
X5625Y3615D01*
X5592Y3696D01*
X5538Y3766D01*
X5468Y3820D01*
X5387Y3854D01*
X5299Y3865D01*
X5212Y3854D01*
X5130Y3820D01*
X5061Y3766D01*
X5007Y3696D01*
X4973Y3615D01*
X4962Y3528D01*
X4973Y3440D01*
X4993Y3392D01*
X4950Y3302D01*
X4923Y3274D01*
X4676D01*
X4649Y3302D01*
X4605Y3392D01*
X4625Y3440D01*
X4637Y3528D01*
X4625Y3615D01*
X4592Y3696D01*
X4538Y3766D01*
X4468Y3820D01*
X4387Y3854D01*
X4299Y3865D01*
X4212Y3854D01*
X4130Y3820D01*
X4061Y3766D01*
X4058Y3763D01*
X3940Y3803D01*
Y4224D01*
X3968Y4235D01*
X4038Y4289D01*
X4092Y4359D01*
X4125Y4440D01*
X4137Y4528D01*
X4125Y4615D01*
X4092Y4696D01*
X4038Y4766D01*
X3968Y4820D01*
X3887Y4854D01*
X3799Y4865D01*
X3712Y4854D01*
X3630Y4820D01*
X3561Y4766D01*
X3507Y4696D01*
X3473Y4615D01*
X3462Y4528D01*
X3473Y4440D01*
X3507Y4359D01*
X3561Y4289D01*
X3630Y4235D01*
X3659Y4224D01*
Y3803D01*
X3541Y3763D01*
X3538Y3766D01*
X3468Y3820D01*
X3387Y3854D01*
X3299Y3865D01*
X3212Y3854D01*
X3130Y3820D01*
X3061Y3766D01*
X3007Y3696D01*
X2973Y3615D01*
X2962Y3528D01*
X2973Y3440D01*
X3007Y3359D01*
X3061Y3289D01*
X3130Y3235D01*
X3212Y3202D01*
X3299Y3190D01*
X3387Y3202D01*
X3468Y3235D01*
X3504Y3263D01*
X4130Y2637D01*
X4176Y2606D01*
X4229Y2596D01*
X4612D01*
X4675Y2478D01*
X4659Y2454D01*
X4641Y2362D01*
X4659Y2270D01*
X4712Y2192D01*
X4790Y2140D01*
X4882Y2121D01*
X4974Y2140D01*
X4974Y2140D01*
X5086Y2151D01*
X5122Y2107D01*
X5145Y2074D01*
X5223Y2022D01*
X5315Y2003D01*
X5350Y2010D01*
X5531Y1830D01*
X5576Y1799D01*
X5630Y1789D01*
X7616D01*
X8146Y1259D01*
X8191Y1228D01*
X8245Y1218D01*
X9078D01*
X9131Y1228D01*
X9177Y1259D01*
X9333Y1415D01*
X11239D01*
X11297Y1297D01*
X11292Y1290D01*
X11266Y1228D01*
X11258Y1161D01*
X11266Y1095D01*
X11292Y1032D01*
X11333Y979D01*
X11374Y947D01*
X11373Y906D01*
X11341Y829D01*
X11304D01*
X11256Y820D01*
X11215Y792D01*
X11188Y752D01*
X11179Y704D01*
Y610D01*
X11437D01*
Y551D01*
X11496D01*
Y273D01*
X11570D01*
X11609Y281D01*
X11614Y276D01*
X11929D01*
X11934Y281D01*
X11973Y273D01*
X12239D01*
X12287Y283D01*
X12328Y310D01*
X12355Y351D01*
X12365Y399D01*
Y582D01*
X12648Y866D01*
X13268D01*
Y80D01*
X80D01*
Y13699D01*
X5746D01*
X5791Y13590D01*
D02*
G37*
G36*
X12521Y9493D02*
X12521Y9493D01*
X12557Y9469D01*
Y9454D01*
X12566Y9406D01*
X12583Y9381D01*
X12593Y9361D01*
Y9261D01*
X12583Y9241D01*
X12566Y9216D01*
X12557Y9168D01*
Y9075D01*
X12815D01*
Y8957D01*
X12557D01*
Y8863D01*
X12457Y8783D01*
X12192D01*
X12192Y8783D01*
X12131Y8770D01*
X12079Y8736D01*
X11437Y8094D01*
X10955D01*
X10910Y8203D01*
X11147Y8440D01*
X11147Y8440D01*
X11182Y8492D01*
X11194Y8553D01*
Y8743D01*
X11214Y8747D01*
X11255Y8774D01*
X11282Y8815D01*
X11339Y8855D01*
X11400Y8867D01*
X11452Y8902D01*
X11544Y8994D01*
X11572Y8982D01*
X11669Y8969D01*
X11767Y8982D01*
X11858Y9020D01*
X11936Y9080D01*
X11996Y9158D01*
X12034Y9249D01*
X12047Y9346D01*
X12034Y9444D01*
X11996Y9535D01*
X11936Y9613D01*
X11858Y9673D01*
X11844Y9679D01*
X11868Y9797D01*
X12217D01*
X12521Y9493D01*
D02*
G37*
G36*
X16332Y13650D02*
X16373Y13597D01*
X16426Y13556D01*
X16488Y13530D01*
X16555Y13521D01*
Y13522D01*
X19134D01*
Y11261D01*
X16929D01*
X16898Y11255D01*
X16872Y11238D01*
X16855Y11212D01*
X16850Y11186D01*
X16202D01*
X15210Y12178D01*
X15132Y12230D01*
X15039Y12249D01*
X10630D01*
X10538Y12230D01*
X10460Y12178D01*
X9782Y11501D01*
X9780Y11500D01*
X9651Y11501D01*
X9610Y11528D01*
X9562Y11538D01*
X9505D01*
X9104Y11939D01*
X9046Y11978D01*
X8976Y11992D01*
X8579D01*
X8381Y12189D01*
Y12961D01*
X8439Y13005D01*
X8493Y13075D01*
X8527Y13157D01*
X8538Y13244D01*
X8527Y13331D01*
X8493Y13413D01*
X8439Y13483D01*
X8370Y13536D01*
X8288Y13570D01*
X8201Y13582D01*
X8113Y13570D01*
X8032Y13536D01*
X7962Y13483D01*
X7917Y13424D01*
X7837Y13413D01*
X7788Y13413D01*
X7610Y13590D01*
X7655Y13699D01*
X10326D01*
X10339Y13685D01*
X10378Y13581D01*
X10343Y13535D01*
X10305Y13444D01*
X10292Y13346D01*
X10305Y13249D01*
X10343Y13158D01*
X10403Y13080D01*
X10481Y13020D01*
X10572Y12982D01*
X10669Y12969D01*
X10767Y12982D01*
X10858Y13020D01*
X10936Y13080D01*
X10996Y13158D01*
X11034Y13249D01*
X11047Y13346D01*
X11034Y13444D01*
X10996Y13535D01*
X10961Y13581D01*
X11000Y13685D01*
X11012Y13699D01*
X11326D01*
X11339Y13685D01*
X11378Y13581D01*
X11343Y13535D01*
X11305Y13444D01*
X11292Y13346D01*
X11305Y13249D01*
X11343Y13158D01*
X11403Y13080D01*
X11481Y13020D01*
X11572Y12982D01*
X11669Y12969D01*
X11767Y12982D01*
X11858Y13020D01*
X11936Y13080D01*
X11996Y13158D01*
X12034Y13249D01*
X12047Y13346D01*
X12034Y13444D01*
X11996Y13535D01*
X11961Y13581D01*
X12000Y13685D01*
X12012Y13699D01*
X12807D01*
X12819Y13685D01*
X12858Y13581D01*
X12823Y13535D01*
X12785Y13444D01*
X12772Y13346D01*
X12785Y13249D01*
X12823Y13158D01*
X12883Y13080D01*
X12961Y13020D01*
X13052Y12982D01*
X13150Y12969D01*
X13247Y12982D01*
X13338Y13020D01*
X13416Y13080D01*
X13476Y13158D01*
X13514Y13249D01*
X13527Y13346D01*
X13514Y13444D01*
X13476Y13535D01*
X13441Y13581D01*
X13480Y13685D01*
X13493Y13699D01*
X13807D01*
X13819Y13685D01*
X13858Y13581D01*
X13823Y13535D01*
X13785Y13444D01*
X13772Y13346D01*
X13785Y13249D01*
X13823Y13158D01*
X13883Y13080D01*
X13961Y13020D01*
X14052Y12982D01*
X14150Y12969D01*
X14247Y12982D01*
X14338Y13020D01*
X14416Y13080D01*
X14476Y13158D01*
X14514Y13249D01*
X14527Y13346D01*
X14514Y13444D01*
X14476Y13535D01*
X14441Y13581D01*
X14480Y13685D01*
X14493Y13699D01*
X16311D01*
X16332Y13650D01*
D02*
G37*
%LPC*%
G36*
X3299Y6030D02*
X3212Y6019D01*
X3130Y5985D01*
X3061Y5932D01*
X3007Y5862D01*
X2973Y5780D01*
X2962Y5693D01*
X2973Y5606D01*
X3007Y5524D01*
X3061Y5454D01*
X3130Y5401D01*
X3212Y5367D01*
X3299Y5355D01*
X3387Y5367D01*
X3468Y5401D01*
X3538Y5454D01*
X3592Y5524D01*
X3625Y5606D01*
X3637Y5693D01*
X3625Y5780D01*
X3592Y5862D01*
X3538Y5932D01*
X3468Y5985D01*
X3387Y6019D01*
X3299Y6030D01*
D02*
G37*
G36*
X2299D02*
X2212Y6019D01*
X2130Y5985D01*
X2061Y5932D01*
X2007Y5862D01*
X1973Y5780D01*
X1962Y5693D01*
X1973Y5606D01*
X2007Y5524D01*
X2061Y5454D01*
X2130Y5401D01*
X2212Y5367D01*
X2299Y5355D01*
X2387Y5367D01*
X2468Y5401D01*
X2538Y5454D01*
X2592Y5524D01*
X2625Y5606D01*
X2637Y5693D01*
X2625Y5780D01*
X2592Y5862D01*
X2538Y5932D01*
X2468Y5985D01*
X2387Y6019D01*
X2299Y6030D01*
D02*
G37*
G36*
X1299D02*
X1212Y6019D01*
X1130Y5985D01*
X1061Y5932D01*
X1007Y5862D01*
X973Y5780D01*
X962Y5693D01*
X973Y5606D01*
X1007Y5524D01*
X1061Y5454D01*
X1130Y5401D01*
X1212Y5367D01*
X1299Y5355D01*
X1387Y5367D01*
X1468Y5401D01*
X1538Y5454D01*
X1592Y5524D01*
X1625Y5606D01*
X1637Y5693D01*
X1625Y5780D01*
X1592Y5862D01*
X1538Y5932D01*
X1468Y5985D01*
X1387Y6019D01*
X1299Y6030D01*
D02*
G37*
G36*
X748Y6779D02*
X650Y6766D01*
X559Y6728D01*
X481Y6668D01*
X421Y6590D01*
X384Y6499D01*
X371Y6402D01*
X384Y6304D01*
X421Y6213D01*
X481Y6135D01*
X559Y6075D01*
X650Y6037D01*
X748Y6024D01*
X846Y6037D01*
X937Y6075D01*
X1015Y6135D01*
X1075Y6213D01*
X1112Y6304D01*
X1125Y6402D01*
X1112Y6499D01*
X1075Y6590D01*
X1015Y6668D01*
X937Y6728D01*
X846Y6766D01*
X748Y6779D01*
D02*
G37*
G36*
X1799Y7030D02*
X1712Y7019D01*
X1630Y6985D01*
X1561Y6932D01*
X1507Y6862D01*
X1473Y6780D01*
X1462Y6693D01*
X1473Y6606D01*
X1507Y6524D01*
X1561Y6454D01*
X1630Y6401D01*
X1712Y6367D01*
X1799Y6355D01*
X1887Y6367D01*
X1968Y6401D01*
X2038Y6454D01*
X2092Y6524D01*
X2125Y6606D01*
X2137Y6693D01*
X2125Y6780D01*
X2092Y6862D01*
X2038Y6932D01*
X1968Y6985D01*
X1887Y7019D01*
X1799Y7030D01*
D02*
G37*
G36*
X4299Y6030D02*
X4212Y6019D01*
X4130Y5985D01*
X4061Y5932D01*
X4007Y5862D01*
X3973Y5780D01*
X3962Y5693D01*
X3973Y5606D01*
X4007Y5524D01*
X4061Y5454D01*
X4130Y5401D01*
X4212Y5367D01*
X4299Y5355D01*
X4387Y5367D01*
X4468Y5401D01*
X4538Y5454D01*
X4592Y5524D01*
X4625Y5606D01*
X4637Y5693D01*
X4625Y5780D01*
X4592Y5862D01*
X4538Y5932D01*
X4468Y5985D01*
X4387Y6019D01*
X4299Y6030D01*
D02*
G37*
G36*
X5299D02*
X5212Y6019D01*
X5130Y5985D01*
X5061Y5932D01*
X5007Y5862D01*
X4973Y5780D01*
X4962Y5693D01*
X4973Y5606D01*
X5007Y5524D01*
X5061Y5454D01*
X5130Y5401D01*
X5212Y5367D01*
X5299Y5355D01*
X5387Y5367D01*
X5468Y5401D01*
X5538Y5454D01*
X5592Y5524D01*
X5625Y5606D01*
X5637Y5693D01*
X5625Y5780D01*
X5592Y5862D01*
X5538Y5932D01*
X5468Y5985D01*
X5387Y6019D01*
X5299Y6030D01*
D02*
G37*
G36*
X748Y4613D02*
X650Y4601D01*
X559Y4563D01*
X481Y4503D01*
X421Y4425D01*
X384Y4334D01*
X371Y4236D01*
X384Y4139D01*
X421Y4048D01*
X481Y3969D01*
X559Y3910D01*
X650Y3872D01*
X748Y3859D01*
X846Y3872D01*
X937Y3910D01*
X1015Y3969D01*
X1075Y4048D01*
X1112Y4139D01*
X1125Y4236D01*
X1112Y4334D01*
X1075Y4425D01*
X1015Y4503D01*
X937Y4563D01*
X846Y4601D01*
X748Y4613D01*
D02*
G37*
G36*
X1799Y4865D02*
X1712Y4854D01*
X1630Y4820D01*
X1561Y4766D01*
X1507Y4696D01*
X1473Y4615D01*
X1462Y4528D01*
X1473Y4440D01*
X1507Y4359D01*
X1561Y4289D01*
X1630Y4235D01*
X1712Y4202D01*
X1799Y4190D01*
X1887Y4202D01*
X1968Y4235D01*
X2038Y4289D01*
X2092Y4359D01*
X2125Y4440D01*
X2137Y4528D01*
X2125Y4615D01*
X2092Y4696D01*
X2038Y4766D01*
X1968Y4820D01*
X1887Y4854D01*
X1799Y4865D01*
D02*
G37*
G36*
X11378Y492D02*
X11179D01*
Y399D01*
X11188Y351D01*
X11215Y310D01*
X11256Y283D01*
X11304Y273D01*
X11378D01*
Y492D01*
D02*
G37*
G36*
X2299Y3865D02*
X2212Y3854D01*
X2130Y3820D01*
X2061Y3766D01*
X2007Y3696D01*
X1973Y3615D01*
X1962Y3528D01*
X1973Y3440D01*
X2007Y3359D01*
X2061Y3289D01*
X2130Y3235D01*
X2212Y3202D01*
X2299Y3190D01*
X2387Y3202D01*
X2468Y3235D01*
X2538Y3289D01*
X2592Y3359D01*
X2625Y3440D01*
X2637Y3528D01*
X2625Y3615D01*
X2592Y3696D01*
X2538Y3766D01*
X2468Y3820D01*
X2387Y3854D01*
X2299Y3865D01*
D02*
G37*
G36*
X9799Y4865D02*
X9712Y4854D01*
X9630Y4820D01*
X9561Y4766D01*
X9507Y4696D01*
X9473Y4615D01*
X9462Y4528D01*
X9473Y4440D01*
X9507Y4359D01*
X9561Y4289D01*
X9630Y4235D01*
X9712Y4202D01*
X9799Y4190D01*
X9887Y4202D01*
X9968Y4235D01*
X10038Y4289D01*
X10092Y4359D01*
X10125Y4440D01*
X10137Y4528D01*
X10125Y4615D01*
X10092Y4696D01*
X10038Y4766D01*
X9968Y4820D01*
X9887Y4854D01*
X9799Y4865D01*
D02*
G37*
G36*
X10799D02*
X10712Y4854D01*
X10630Y4820D01*
X10561Y4766D01*
X10507Y4696D01*
X10473Y4615D01*
X10462Y4528D01*
X10473Y4440D01*
X10507Y4359D01*
X10561Y4289D01*
X10630Y4235D01*
X10712Y4202D01*
X10799Y4190D01*
X10887Y4202D01*
X10968Y4235D01*
X11038Y4289D01*
X11092Y4359D01*
X11125Y4440D01*
X11137Y4528D01*
X11125Y4615D01*
X11092Y4696D01*
X11038Y4766D01*
X10968Y4820D01*
X10887Y4854D01*
X10799Y4865D01*
D02*
G37*
G36*
X2799D02*
X2712Y4854D01*
X2630Y4820D01*
X2561Y4766D01*
X2507Y4696D01*
X2473Y4615D01*
X2462Y4528D01*
X2473Y4440D01*
X2507Y4359D01*
X2561Y4289D01*
X2630Y4235D01*
X2712Y4202D01*
X2799Y4190D01*
X2887Y4202D01*
X2968Y4235D01*
X3038Y4289D01*
X3092Y4359D01*
X3125Y4440D01*
X3137Y4528D01*
X3125Y4615D01*
X3092Y4696D01*
X3038Y4766D01*
X2968Y4820D01*
X2887Y4854D01*
X2799Y4865D01*
D02*
G37*
G36*
X4799D02*
X4712Y4854D01*
X4630Y4820D01*
X4561Y4766D01*
X4507Y4696D01*
X4473Y4615D01*
X4462Y4528D01*
X4473Y4440D01*
X4507Y4359D01*
X4561Y4289D01*
X4630Y4235D01*
X4712Y4202D01*
X4799Y4190D01*
X4887Y4202D01*
X4968Y4235D01*
X5038Y4289D01*
X5092Y4359D01*
X5125Y4440D01*
X5137Y4528D01*
X5125Y4615D01*
X5092Y4696D01*
X5038Y4766D01*
X4968Y4820D01*
X4887Y4854D01*
X4799Y4865D01*
D02*
G37*
G36*
X12717Y10829D02*
X12645Y10820D01*
X12578Y10792D01*
X12520Y10748D01*
X12476Y10690D01*
X12448Y10623D01*
X12439Y10551D01*
X12448Y10479D01*
X12476Y10412D01*
X12520Y10355D01*
X12578Y10310D01*
X12645Y10283D01*
X12717Y10273D01*
X12788Y10283D01*
X12856Y10310D01*
X12913Y10355D01*
X13020D01*
X13078Y10310D01*
X13145Y10283D01*
X13157Y10281D01*
Y10551D01*
Y10821D01*
X13145Y10820D01*
X13078Y10792D01*
X13020Y10748D01*
X12913D01*
X12856Y10792D01*
X12788Y10820D01*
X12717Y10829D01*
D02*
G37*
G36*
X6181Y10610D02*
X5982D01*
Y10517D01*
X5991Y10469D01*
X6019Y10428D01*
X6059Y10401D01*
X6107Y10391D01*
X6181D01*
Y10610D01*
D02*
G37*
G36*
X3392Y12582D02*
X3304Y12570D01*
X3223Y12536D01*
X3153Y12483D01*
X3099Y12413D01*
X3066Y12331D01*
X3054Y12244D01*
X3066Y12157D01*
X3099Y12075D01*
X3153Y12005D01*
X3223Y11952D01*
X3304Y11918D01*
X3392Y11907D01*
X3479Y11918D01*
X3561Y11952D01*
X3630Y12005D01*
X3684Y12075D01*
X3718Y12157D01*
X3729Y12244D01*
X3718Y12331D01*
X3684Y12413D01*
X3630Y12483D01*
X3561Y12536D01*
X3479Y12570D01*
X3392Y12582D01*
D02*
G37*
G36*
X10354Y10829D02*
X10282Y10820D01*
X10215Y10792D01*
X10158Y10748D01*
X10114Y10690D01*
X10086Y10623D01*
X10076Y10551D01*
X10086Y10479D01*
X10114Y10412D01*
X10158Y10355D01*
X10215Y10310D01*
X10282Y10283D01*
X10354Y10273D01*
X10426Y10283D01*
X10493Y10310D01*
X10551Y10355D01*
X10658D01*
X10715Y10310D01*
X10782Y10283D01*
X10795Y10281D01*
Y10551D01*
Y10821D01*
X10782Y10820D01*
X10715Y10792D01*
X10658Y10748D01*
X10551D01*
X10493Y10792D01*
X10426Y10820D01*
X10354Y10829D01*
D02*
G37*
G36*
X14217D02*
X14145Y10820D01*
X14078Y10792D01*
X14020Y10748D01*
X13913D01*
X13856Y10792D01*
X13788Y10820D01*
X13717Y10829D01*
X13645Y10820D01*
X13578Y10792D01*
X13520Y10748D01*
X13413D01*
X13356Y10792D01*
X13288Y10820D01*
X13276Y10821D01*
Y10551D01*
Y10281D01*
X13288Y10283D01*
X13356Y10310D01*
X13413Y10355D01*
X13520D01*
X13578Y10310D01*
X13645Y10283D01*
X13717Y10273D01*
X13788Y10283D01*
X13856Y10310D01*
X13913Y10355D01*
X14020D01*
X14078Y10310D01*
X14145Y10283D01*
X14217Y10273D01*
X14288Y10283D01*
X14356Y10310D01*
X14413Y10355D01*
X14457Y10412D01*
X14485Y10479D01*
X14495Y10551D01*
X14485Y10623D01*
X14457Y10690D01*
X14413Y10748D01*
X14356Y10792D01*
X14288Y10820D01*
X14217Y10829D01*
D02*
G37*
G36*
X2392Y12582D02*
X2304Y12570D01*
X2223Y12536D01*
X2153Y12483D01*
X2099Y12413D01*
X2066Y12331D01*
X2054Y12244D01*
X2066Y12157D01*
X2099Y12075D01*
X2153Y12005D01*
X2223Y11952D01*
X2304Y11918D01*
X2392Y11907D01*
X2479Y11918D01*
X2560Y11952D01*
X2630Y12005D01*
X2684Y12075D01*
X2718Y12157D01*
X2729Y12244D01*
X2718Y12331D01*
X2684Y12413D01*
X2630Y12483D01*
X2560Y12536D01*
X2479Y12570D01*
X2392Y12582D01*
D02*
G37*
G36*
X8467Y10610D02*
X8268D01*
Y10391D01*
X8342D01*
X8390Y10401D01*
X8430Y10428D01*
X8457Y10469D01*
X8467Y10517D01*
Y10610D01*
D02*
G37*
G36*
X11854Y10829D02*
X11782Y10820D01*
X11715Y10792D01*
X11658Y10748D01*
X11551D01*
X11493Y10792D01*
X11426Y10820D01*
X11354Y10829D01*
X11282Y10820D01*
X11215Y10792D01*
X11158Y10748D01*
X11051D01*
X10993Y10792D01*
X10926Y10820D01*
X10913Y10821D01*
Y10551D01*
Y10281D01*
X10926Y10283D01*
X10993Y10310D01*
X11051Y10355D01*
X11158D01*
X11215Y10310D01*
X11282Y10283D01*
X11354Y10273D01*
X11426Y10283D01*
X11493Y10310D01*
X11551Y10355D01*
X11658D01*
X11715Y10310D01*
X11782Y10283D01*
X11854Y10273D01*
X11926Y10283D01*
X11993Y10310D01*
X12051Y10355D01*
X12095Y10412D01*
X12123Y10479D01*
X12132Y10551D01*
X12123Y10623D01*
X12095Y10690D01*
X12051Y10748D01*
X11993Y10792D01*
X11926Y10820D01*
X11854Y10829D01*
D02*
G37*
G36*
X4799Y7030D02*
X4712Y7019D01*
X4630Y6985D01*
X4561Y6932D01*
X4507Y6862D01*
X4473Y6780D01*
X4462Y6693D01*
X4473Y6606D01*
X4507Y6524D01*
X4561Y6454D01*
X4630Y6401D01*
X4712Y6367D01*
X4799Y6355D01*
X4887Y6367D01*
X4968Y6401D01*
X5038Y6454D01*
X5092Y6524D01*
X5125Y6606D01*
X5137Y6693D01*
X5125Y6780D01*
X5092Y6862D01*
X5038Y6932D01*
X4968Y6985D01*
X4887Y7019D01*
X4799Y7030D01*
D02*
G37*
G36*
X3892Y13582D02*
X3804Y13570D01*
X3723Y13536D01*
X3653Y13483D01*
X3599Y13413D01*
X3566Y13331D01*
X3554Y13244D01*
X3566Y13157D01*
X3599Y13075D01*
X3653Y13005D01*
X3723Y12952D01*
X3804Y12918D01*
X3892Y12907D01*
X3979Y12918D01*
X4060Y12952D01*
X4130Y13005D01*
X4184Y13075D01*
X4218Y13157D01*
X4229Y13244D01*
X4218Y13331D01*
X4184Y13413D01*
X4130Y13483D01*
X4060Y13536D01*
X3979Y13570D01*
X3892Y13582D01*
D02*
G37*
G36*
X2799Y7030D02*
X2712Y7019D01*
X2630Y6985D01*
X2561Y6932D01*
X2507Y6862D01*
X2473Y6780D01*
X2462Y6693D01*
X2473Y6606D01*
X2507Y6524D01*
X2561Y6454D01*
X2630Y6401D01*
X2712Y6367D01*
X2799Y6355D01*
X2887Y6367D01*
X2968Y6401D01*
X3038Y6454D01*
X3092Y6524D01*
X3125Y6606D01*
X3137Y6693D01*
X3125Y6780D01*
X3092Y6862D01*
X3038Y6932D01*
X2968Y6985D01*
X2887Y7019D01*
X2799Y7030D01*
D02*
G37*
G36*
X3799D02*
X3712Y7019D01*
X3630Y6985D01*
X3561Y6932D01*
X3507Y6862D01*
X3473Y6780D01*
X3462Y6693D01*
X3473Y6606D01*
X3507Y6524D01*
X3561Y6454D01*
X3630Y6401D01*
X3712Y6367D01*
X3799Y6355D01*
X3887Y6367D01*
X3968Y6401D01*
X4038Y6454D01*
X4092Y6524D01*
X4125Y6606D01*
X4137Y6693D01*
X4125Y6780D01*
X4092Y6862D01*
X4038Y6932D01*
X3968Y6985D01*
X3887Y7019D01*
X3799Y7030D01*
D02*
G37*
G36*
X9252Y13330D02*
X9154Y13317D01*
X9063Y13279D01*
X8985Y13219D01*
X8925Y13141D01*
X8888Y13050D01*
X8875Y12953D01*
X8888Y12855D01*
X8925Y12764D01*
X8985Y12686D01*
X9063Y12626D01*
X9154Y12588D01*
X9252Y12576D01*
X9350Y12588D01*
X9441Y12626D01*
X9519Y12686D01*
X9579Y12764D01*
X9616Y12855D01*
X9629Y12953D01*
X9616Y13050D01*
X9579Y13141D01*
X9519Y13219D01*
X9441Y13279D01*
X9350Y13317D01*
X9252Y13330D01*
D02*
G37*
G36*
X1841D02*
X1743Y13317D01*
X1652Y13279D01*
X1574Y13219D01*
X1514Y13141D01*
X1476Y13050D01*
X1463Y12953D01*
X1476Y12855D01*
X1514Y12764D01*
X1574Y12686D01*
X1652Y12626D01*
X1743Y12588D01*
X1841Y12576D01*
X1938Y12588D01*
X2029Y12626D01*
X2107Y12686D01*
X2167Y12764D01*
X2205Y12855D01*
X2218Y12953D01*
X2205Y13050D01*
X2167Y13141D01*
X2107Y13219D01*
X2029Y13279D01*
X1938Y13317D01*
X1841Y13330D01*
D02*
G37*
G36*
X10305Y8957D02*
X10106D01*
Y8863D01*
X10115Y8815D01*
X10143Y8774D01*
X10183Y8747D01*
X10231Y8738D01*
X10305D01*
Y8957D01*
D02*
G37*
G36*
X2892Y13582D02*
X2804Y13570D01*
X2723Y13536D01*
X2653Y13483D01*
X2599Y13413D01*
X2566Y13331D01*
X2554Y13244D01*
X2566Y13157D01*
X2599Y13075D01*
X2653Y13005D01*
X2723Y12952D01*
X2804Y12918D01*
X2892Y12907D01*
X2979Y12918D01*
X3061Y12952D01*
X3130Y13005D01*
X3184Y13075D01*
X3218Y13157D01*
X3229Y13244D01*
X3218Y13331D01*
X3184Y13413D01*
X3130Y13483D01*
X3061Y13536D01*
X2979Y13570D01*
X2892Y13582D01*
D02*
G37*
%LPD*%
D10*
X15906Y846D02*
D03*
Y1516D02*
D03*
Y2067D02*
D03*
Y2736D02*
D03*
D13*
X10364Y9016D02*
D03*
X11033D02*
D03*
X7539Y10669D02*
D03*
X8209D02*
D03*
X6240D02*
D03*
X6909D02*
D03*
X8760Y11260D02*
D03*
X9429D02*
D03*
X5020D02*
D03*
X5689D02*
D03*
X7539D02*
D03*
X8209D02*
D03*
X6240D02*
D03*
X6909D02*
D03*
X11437Y551D02*
D03*
X12106D02*
D03*
X14429Y433D02*
D03*
X15098D02*
D03*
X12815Y9016D02*
D03*
X13484D02*
D03*
X10374Y9606D02*
D03*
X11043D02*
D03*
X12815D02*
D03*
X13484D02*
D03*
D14*
X12953Y1563D02*
D03*
Y2063D02*
D03*
Y2563D02*
D03*
X15079Y2063D02*
D03*
Y2563D02*
D03*
Y1063D02*
D03*
Y1563D02*
D03*
D15*
X12953Y1063D02*
D03*
D16*
X18307Y394D02*
D03*
Y787D02*
D03*
Y1181D02*
D03*
Y1575D02*
D03*
Y1969D02*
D03*
Y2362D02*
D03*
Y2756D02*
D03*
Y3150D02*
D03*
Y3543D02*
D03*
Y3937D02*
D03*
Y4331D02*
D03*
Y4724D02*
D03*
Y5118D02*
D03*
Y5512D02*
D03*
Y5906D02*
D03*
Y6299D02*
D03*
Y6693D02*
D03*
Y7087D02*
D03*
Y7480D02*
D03*
Y7874D02*
D03*
Y8268D02*
D03*
Y9449D02*
D03*
Y9843D02*
D03*
Y10236D02*
D03*
Y10630D02*
D03*
Y11024D02*
D03*
Y11417D02*
D03*
Y11811D02*
D03*
Y12205D02*
D03*
Y12598D02*
D03*
Y12992D02*
D03*
Y13386D02*
D03*
D17*
X17559Y3937D02*
X18307D01*
X17441Y3819D02*
X17559Y3937D01*
X13344Y3819D02*
X17441D01*
X17520Y5906D02*
X18307D01*
X16417Y4803D02*
X17520Y5906D01*
X12936Y4803D02*
X16417D01*
X11267Y3134D02*
X12936Y4803D01*
X11344Y2933D02*
X13018Y4606D01*
X11426Y2736D02*
X13099Y4409D01*
X11507Y2539D02*
X13181Y4213D01*
X18228Y4252D02*
X18307Y4331D01*
X11670Y2146D02*
X13344Y3819D01*
X13425Y3622D02*
X18228D01*
X11752Y1949D02*
X13425Y3622D01*
X18228D02*
X18307Y3543D01*
X5315Y2244D02*
X5630Y1929D01*
X5315Y2244D02*
X5370D01*
X9078Y1358D02*
X9274Y1555D01*
X3799Y3445D02*
X4311Y2933D01*
X4299Y3223D02*
X4389Y3134D01*
X9274Y1555D02*
X11915D01*
X11923Y1563D01*
X8996Y1555D02*
X9193Y1752D01*
X11834D01*
X12145Y2063D01*
X8917Y1949D02*
X11752D01*
X8819Y1850D02*
X8917Y1949D01*
X3602Y3363D02*
X4229Y2736D01*
X4299Y3223D02*
Y3528D01*
X3602Y3363D02*
Y3366D01*
X3441Y3528D02*
X3602Y3366D01*
X3299Y3528D02*
X3441D01*
X3799Y3445D02*
Y4528D01*
X11923Y1563D02*
X12953D01*
X12145Y2063D02*
X12953D01*
X7758Y13244D02*
X8201D01*
X7364Y13638D02*
X7758Y13244D01*
X6038Y13638D02*
X7364D01*
X5807Y13407D02*
X6038Y13638D01*
X5010Y11270D02*
X5807Y12067D01*
Y13407D01*
X13018Y4606D02*
X16614D01*
X17520Y5512D01*
X18307D01*
X13099Y4409D02*
X16811D01*
X17520Y5118D01*
X18307D01*
X17030Y4213D02*
X17541Y4724D01*
X18307D01*
X13181Y4213D02*
X17030D01*
X13262Y4016D02*
X17205D01*
X17520Y4331D01*
X18307D01*
X8826Y2539D02*
X11507D01*
X8907Y2736D02*
X11426D01*
X8989Y2933D02*
X11344D01*
X8557Y2146D02*
X11670D01*
X8459Y2047D02*
X8557Y2146D01*
X8826Y2539D02*
X8826Y2539D01*
X8907Y2736D02*
X8907Y2736D01*
X8989Y2933D02*
X8989Y2933D01*
X8261Y2539D02*
X8261Y2539D01*
X8826D01*
X4389Y3134D02*
X11267D01*
X8098Y2933D02*
X8989D01*
X8098Y2933D02*
X8098Y2933D01*
X4311Y2933D02*
X8098D01*
X8179Y2736D02*
X8907D01*
X8179Y2736D02*
X8179Y2736D01*
X4229Y2736D02*
X8179D01*
X5059Y2539D02*
X8261D01*
X11589Y2343D02*
X13262Y4016D01*
X8169Y2343D02*
X11589D01*
X8071Y2244D02*
X8169Y2343D01*
X4882Y2362D02*
X5059Y2539D01*
X5787Y2244D02*
X7638D01*
X8327Y1555D01*
X8996D01*
X5630Y1929D02*
X7674D01*
X8245Y1358D01*
X9078D01*
D18*
X5689Y11260D02*
X6240D01*
X6909Y10669D02*
X6909Y10669D01*
Y11260D01*
X7539Y10669D02*
X7539Y10669D01*
X7539Y10669D02*
Y11260D01*
X8209D02*
X8760D01*
X7701Y11768D02*
X8209Y11260D01*
X7701Y11768D02*
Y12244D01*
X7201Y11598D02*
X7539Y11260D01*
X7201Y11598D02*
Y13244D01*
X6701Y11469D02*
X6909Y11260D01*
X6701Y11469D02*
Y12244D01*
X14370Y3307D02*
X16024D01*
X14252Y3189D02*
X14370Y3307D01*
X12618Y1063D02*
X12953D01*
X12106Y551D02*
X12618Y1063D01*
X16499Y2371D02*
X18307D01*
X16693Y2008D02*
X18189D01*
X16417Y1444D02*
Y1654D01*
X16004Y2067D02*
X16417Y1654D01*
X18189Y2008D02*
X18268Y1929D01*
X16732Y1575D02*
X18307D01*
X16602Y1260D02*
X17074Y787D01*
X16602Y1260D02*
X16602D01*
X16417Y1444D02*
X16602Y1260D01*
X16004Y1516D02*
X17126Y394D01*
X15925Y827D02*
X16220D01*
X17126Y1181D02*
X18307D01*
X17126Y394D02*
X18307D01*
X17074Y787D02*
X18307D01*
X18268Y1929D02*
X18307Y1969D01*
X14567Y2953D02*
X15689D01*
X14252Y2822D02*
Y3083D01*
Y2822D02*
X14409Y2665D01*
Y2126D02*
Y2665D01*
X14252Y3083D02*
Y3189D01*
X14252Y3083D02*
X14252Y3083D01*
X14846Y2563D02*
X15079D01*
X14409Y2126D02*
X14846Y2563D01*
X14409Y906D02*
Y2126D01*
Y453D02*
X14429Y433D01*
X14409Y453D02*
Y906D01*
X15689Y2953D02*
X15906Y2736D01*
Y2067D02*
X16004D01*
X15858Y1563D02*
X15906Y1516D01*
X15079Y1563D02*
X15858D01*
X15906Y1516D02*
X16004D01*
X15906Y846D02*
X15925Y827D01*
X15079Y1063D02*
X15098Y1043D01*
Y433D02*
Y1043D01*
X15689Y1063D02*
X15906Y846D01*
X15079Y1063D02*
X15689D01*
X15902Y2063D02*
X15906Y2067D01*
X15079Y2063D02*
X15902D01*
X8299Y3528D02*
Y4612D01*
X8628Y4941D01*
X6799Y4528D02*
X7215D01*
X7864Y5177D01*
X8474D01*
X8886Y5589D01*
X6299Y3528D02*
Y4612D01*
X6628Y4941D01*
X7244D01*
X7886Y5583D01*
Y5967D01*
X8628Y4941D02*
X9173D01*
X11516Y1161D02*
X12106Y571D01*
Y551D02*
Y571D01*
X6201Y11299D02*
X6240Y11260D01*
X6201Y11299D02*
Y13244D01*
X11713Y7697D02*
X12323Y8307D01*
X9982Y7461D02*
X12067D01*
X12913Y8307D01*
X12421Y7224D02*
X13504Y8307D01*
X11030Y9606D02*
X11033D01*
X7795Y7717D02*
X7799Y7713D01*
X7047Y7717D02*
X7795D01*
X6299Y5693D02*
X6384D01*
X9121Y7933D02*
X11503D01*
X12192Y8622D01*
X13110D01*
X6799Y6693D02*
X7232Y7126D01*
X8314D01*
X6299Y5693D02*
Y6778D01*
X6884Y7362D01*
X8216D01*
X10746Y7224D02*
X12421D01*
X8886Y5589D02*
Y6002D01*
X7886Y5967D02*
X8386Y6467D01*
X9173Y4941D02*
X9886Y5654D01*
Y5959D01*
X10386Y6459D01*
Y6864D01*
X10746Y7224D01*
X8886Y6002D02*
X9386Y6502D01*
Y6864D01*
X9982Y7461D01*
X8314Y7126D02*
X9121Y7933D01*
X8386Y6467D02*
Y6864D01*
X9219Y7697D01*
X11713D01*
X8216Y7362D02*
X9043Y8189D01*
X12953Y315D02*
X13415Y778D01*
X12953Y2563D02*
X13146D01*
X13415Y2293D01*
Y778D02*
Y2293D01*
X11043Y9026D02*
Y9606D01*
X11033Y9016D02*
X11043Y9026D01*
X11033Y9016D02*
X11339D01*
X11669Y9346D01*
X13484Y9016D02*
Y9606D01*
Y9016D02*
X13819D01*
X14150Y9346D01*
X13110Y8622D02*
X13484Y8996D01*
Y9016D01*
X9043Y8189D02*
X10669D01*
X11033Y8553D01*
Y9016D01*
X11260Y9961D02*
X11263Y9958D01*
X12283D01*
X10728Y9961D02*
X11260D01*
X10374Y9606D02*
X10728Y9961D01*
X12283Y9958D02*
X12635Y9606D01*
X12815D01*
X12283Y9958D02*
X12287Y9961D01*
X15118D01*
X16102Y10945D01*
D19*
X5010Y11270D02*
X5020Y11260D01*
X8201Y12114D02*
Y13244D01*
Y12114D02*
X8504Y11811D01*
X16299Y9449D02*
X18307D01*
X15344Y8494D02*
X16299Y9449D01*
X13937Y5236D02*
X15344Y6644D01*
Y8494D01*
X9429Y11260D02*
Y11358D01*
X8976Y11811D02*
X9429Y11358D01*
X8504Y11811D02*
X8976D01*
X9429Y11260D02*
X9656Y11033D01*
D20*
X15039Y12008D02*
X16102Y10945D01*
X17205D01*
X9656Y11033D02*
X10630Y12008D01*
X6545Y7923D02*
X9656Y11033D01*
X10630Y12008D02*
X15039D01*
D21*
X10854Y10551D02*
D03*
X10354D02*
D03*
X11854D02*
D03*
X11354D02*
D03*
X13217D02*
D03*
X12717D02*
D03*
X14217D02*
D03*
X13717D02*
D03*
X394Y394D02*
D03*
X1969D02*
D03*
X3543D02*
D03*
X5118D02*
D03*
X6693D02*
D03*
X8268D02*
D03*
X9843D02*
D03*
X394Y1969D02*
D03*
Y3543D02*
D03*
Y5118D02*
D03*
Y7087D02*
D03*
Y8661D02*
D03*
Y10236D02*
D03*
Y13386D02*
D03*
Y11811D02*
D03*
X5118Y13386D02*
D03*
X16142D02*
D03*
X14961D02*
D03*
X9843D02*
D03*
X9646Y12008D02*
D03*
X7677Y10039D02*
D03*
X8268Y8071D02*
D03*
X5118Y7677D02*
D03*
X4528Y9843D02*
D03*
X1969Y7480D02*
D03*
Y11024D02*
D03*
X2756Y2756D02*
D03*
X7283Y1378D02*
D03*
X15945Y8268D02*
D03*
X17126Y8071D02*
D03*
X16929Y7087D02*
D03*
X16732Y5906D02*
D03*
X14961Y5512D02*
D03*
X9921Y5157D02*
D03*
D22*
X1299Y3528D02*
D03*
X3299D02*
D03*
X2299D02*
D03*
X1799Y4528D02*
D03*
X2799D02*
D03*
X3799D02*
D03*
X4299Y3528D02*
D03*
X4799Y4528D02*
D03*
X7299Y3528D02*
D03*
X5299D02*
D03*
X6299D02*
D03*
X8299D02*
D03*
X9299D02*
D03*
X7799Y4528D02*
D03*
X8799D02*
D03*
X5799D02*
D03*
X6799D02*
D03*
X9799D02*
D03*
X10299Y3528D02*
D03*
X10799Y4528D02*
D03*
X1299Y5693D02*
D03*
X3299D02*
D03*
X2299D02*
D03*
X1799Y6693D02*
D03*
X2799D02*
D03*
X3799D02*
D03*
X4299Y5693D02*
D03*
X4799Y6693D02*
D03*
X7299Y5693D02*
D03*
X5299D02*
D03*
X6299D02*
D03*
X8299D02*
D03*
X9299D02*
D03*
X7799Y6693D02*
D03*
X8799D02*
D03*
X5799D02*
D03*
X6799D02*
D03*
X9799D02*
D03*
X10299Y5693D02*
D03*
X10799Y6693D02*
D03*
X3392Y12244D02*
D03*
X2392D02*
D03*
X2892Y13244D02*
D03*
X3892D02*
D03*
X6201D02*
D03*
X6701Y12244D02*
D03*
X8701D02*
D03*
X7701D02*
D03*
X8201Y13244D02*
D03*
X7201D02*
D03*
D23*
X10669Y13346D02*
D03*
X11669Y9346D02*
D03*
Y13346D02*
D03*
Y11346D02*
D03*
X13150Y13346D02*
D03*
X14150Y9346D02*
D03*
Y13346D02*
D03*
Y11346D02*
D03*
D24*
X5315Y2244D02*
D03*
X5787D02*
D03*
X8819Y1850D02*
D03*
X4882Y2362D02*
D03*
X16499Y2371D02*
D03*
X16693Y2008D02*
D03*
X16732Y1575D02*
D03*
X16220Y827D02*
D03*
X17126Y1181D02*
D03*
X16024Y3307D02*
D03*
X14567Y2953D02*
D03*
X14409Y906D02*
D03*
X12323Y8307D02*
D03*
X12913D02*
D03*
X17205Y10236D02*
D03*
Y9882D02*
D03*
Y9528D02*
D03*
Y10591D02*
D03*
Y10945D02*
D03*
X13504Y8307D02*
D03*
X7047Y7717D02*
D03*
X10827Y512D02*
D03*
X13740Y5984D02*
D03*
X12953Y315D02*
D03*
X8459Y2047D02*
D03*
X8071Y2244D02*
D03*
X11339Y8307D02*
D03*
X11417Y3937D02*
D03*
X16535Y10394D02*
D03*
X17205Y11457D02*
D03*
Y11811D02*
D03*
Y12165D02*
D03*
Y12520D02*
D03*
Y12874D02*
D03*
Y13228D02*
D03*
D25*
X13937Y5236D02*
D03*
X11516Y1161D02*
D03*
X7799Y7713D02*
D03*
D26*
X6545Y7923D02*
D03*
M02*
